<svg xmlns="http://www.w3.org/2000/svg" version="1.1" xmlns:xlink="http://www.w3.org/1999/xlink" xmlns:svgjs="http://svgjs.dev/svgjs" width="2000" height="1999" viewBox="0 0 2000 1999"><g transform="matrix(1,0,0,1,-0.431486880466764,-0.4312711370263287)"><svg viewBox="0 0 343 343" data-background-color="#915eff" preserveAspectRatio="xMidYMid meet" height="1999" width="2000" xmlns="http://www.w3.org/2000/svg" xmlns:xlink="http://www.w3.org/1999/xlink"><g id="tight-bounds" transform="matrix(1,0,0,1,0.0740000000000407,0.07400000000001228)"><svg viewBox="0 0 342.85155851775386 342.85155851775386" height="342.85155851775386" width="342.85155851775386"><g><svg></svg></g><g><svg viewBox="0 0 342.85155851775386 342.85155851775386" height="342.85155851775386" width="342.85155851775386"><g><path d="M0 171.426c0-94.676 76.75-171.426 171.426-171.426 94.676 0 171.426 76.75 171.426 171.426 0 94.676-76.75 171.426-171.426 171.426-94.676 0-171.426-76.75-171.426-171.426zM171.426 327.528c86.213 0 156.103-69.889 156.102-156.102 0-86.213-69.889-156.103-156.102-156.103-86.213 0-156.103 69.889-156.103 156.103 0 86.213 69.889 156.103 156.103 156.102z" data-fill-palette-color="tertiary" fill="#fffafe" stroke="transparent"></path><ellipse rx="164.56874808852186" ry="164.56874808852186" cx="171.42577925887693" cy="171.42577925887693" fill="#fffafe" stroke="transparent" stroke-width="0" fill-opacity="1" data-fill-palette-color="tertiary"></ellipse></g><g transform="matrix(1,0,0,1,64.84655864529837,86.46764158600048)"><svg viewBox="0 0 213.1584412271571 169.9162753457529" height="169.9162753457529" width="213.1584412271571"><g><svg viewBox="0 0 213.1584412271571 169.9162753457529" height="169.9162753457529" width="213.1584412271571"><g><svg viewBox="0 0 213.1584412271571 169.9162753457529" height="169.9162753457529" width="213.1584412271571"><g><svg viewBox="0 0 213.1584412271571 169.9162753457529" height="169.9162753457529" width="213.1584412271571"><g id="textblocktransform"><svg viewBox="0 0 213.1584412271571 169.9162753457529" height="169.9162753457529" width="213.1584412271571" id="textblock"><g><svg viewBox="0 0 213.1584412271571 169.9162753457529" height="169.9162753457529" width="213.1584412271571"><g transform="matrix(1,0,0,1,0,0)"><svg width="213.1584412271571" viewBox="1.7 -33.4 41.900000000000006 33.4" height="169.9162753457529" data-palette-color="#915eff"><path d="M33.6-33.4L42.9-33.4 42.9-32.25 38.65-31.75 39.75-1.5 43.6-1.2 43.6 0 30.9 0 30.9-1.05 34.7-1.5 33.4-27.3 23.35 0 20.7 0 8.7-27.05 7.75-2.45 11.95-1.2 11.95 0 1.7 0 1.7-1.2 5.85-2.65 6.85-31.75 2.6-32.25 2.6-33.4 11.45-33.4 23.35-5.55 33.6-33.4Z" opacity="1" transform="matrix(1,0,0,1,0,0)" fill="#915eff" class="wordmark-text-0" data-fill-palette-color="quaternary" id="text-0"></path></svg></g></svg></g></svg></g></svg></g><g></g></svg></g></svg></g></svg></g></svg></g><defs></defs></svg><rect width="342.85155851775386" height="342.85155851775386" fill="none" stroke="none" visibility="hidden"></rect></g></svg></g></svg>